HIERARCHY
ROOT Hips
{
	OFFSET -0.001795 -0.223333 0.028219
	CHANNELS 6 Xposition Yposition Zposition Zrotation Yrotation Xrotation 
	JOINT LeftUpLeg
	{
		OFFSET 0.069520 -0.091406 -0.006815
		CHANNELS 3 Zrotation Yrotation Xrotation
		JOINT LeftLeg
		{
			OFFSET 0.034277 -0.375199 -0.004496
			CHANNELS 3 Zrotation Yrotation Xrotation
			JOINT LeftFoot
			{
				OFFSET -0.013596 -0.397961 -0.043693
				CHANNELS 3 Zrotation Yrotation Xrotation
				JOINT LeftToe
				{
					OFFSET 0.026358 -0.055791 0.119288
					CHANNELS 3 Zrotation Yrotation Xrotation
					End Site
					{
						OFFSET 0.000000 0.000000 0.000000
					}
				}
			}
		}
	}
	JOINT RightUpLeg
	{
		OFFSET -0.067670 -0.090522 -0.004320
		CHANNELS 3 Zrotation Yrotation Xrotation
		JOINT RightLeg
		{
			OFFSET -0.038290 -0.382569 -0.008850
			CHANNELS 3 Zrotation Yrotation Xrotation
			JOINT RightFoot
			{
				OFFSET 0.015774 -0.398415 -0.042312
				CHANNELS 3 Zrotation Yrotation Xrotation
				JOINT RightToe
				{
					OFFSET -0.025372 -0.048144 0.123348
					CHANNELS 3 Zrotation Yrotation Xrotation
					End Site
					{
						OFFSET 0.000000 0.000000 0.000000
					}
				}
			}
		}
	}
	JOINT Spine
	{
		OFFSET -0.002533 0.108963 -0.026696
		CHANNELS 3 Zrotation Yrotation Xrotation
		JOINT Spine1
		{
			OFFSET 0.005487 0.135180 0.001092
			CHANNELS 3 Zrotation Yrotation Xrotation
			JOINT Spine2
			{
				OFFSET 0.001457 0.052922 0.025425
				CHANNELS 3 Zrotation Yrotation Xrotation
				JOINT Neck
				{
					OFFSET -0.002778 0.213870 -0.042857
					CHANNELS 3 Zrotation Yrotation Xrotation
					JOINT Head
					{
						OFFSET 0.005152 0.064970 0.051349
						CHANNELS 3 Zrotation Yrotation Xrotation
						End Site
						{
							OFFSET 0.000000 0.000000 0.000000
						}
					}
				}
				JOINT LeftShoulder
				{
					OFFSET 0.078845 0.121749 -0.034090
					CHANNELS 3 Zrotation Yrotation Xrotation
					JOINT LeftArm
					{
						OFFSET 0.090977 0.030469 -0.008868
						CHANNELS 3 Zrotation Yrotation Xrotation
						JOINT LeftForeArm
						{
							OFFSET 0.259612 -0.012772 -0.027456
							CHANNELS 3 Zrotation Yrotation Xrotation
							JOINT LeftHand
							{
								OFFSET 0.249234 0.008986 -0.001171
								CHANNELS 3 Zrotation Yrotation Xrotation
								End Site
								{
									OFFSET 0.000000 0.000000 0.000000
								}
							}
						}
					}
				}
				JOINT RightShoulder
				{
					OFFSET -0.081759 0.118833 -0.038615
					CHANNELS 3 Zrotation Yrotation Xrotation
					JOINT RightArm
					{
						OFFSET -0.096012 0.032551 -0.009143
						CHANNELS 3 Zrotation Yrotation Xrotation
						JOINT RightForeArm
						{
							OFFSET -0.253742 -0.013329 -0.021401
							CHANNELS 3 Zrotation Yrotation Xrotation
							JOINT RightHand
							{
								OFFSET -0.255298 0.007772 -0.005559
								CHANNELS 3 Zrotation Yrotation Xrotation
								End Site
								{
									OFFSET 0.000000 0.000000 0.000000
								}
							}
						}
					}
				}
			}
		}
	}
}
MOTION
Frames: 6
Frame Time: 0.050000
0.016506 0.947154 -0.048906 -2.150143 2.806558 6.425036 9.278792 -0.393692 -6.674181 -0.775148 0.189056 -4.109127 7.710518 17.612412 18.869302 0.000000 0.000000 0.000000 -5.205926 0.737598 -10.515843 0.940197 0.023288 4.385330 -2.968869 -10.093841 11.290252 0.000000 0.000000 0.000000 1.309841 -0.230357 3.535451 -0.392054 0.240050 -1.920816 -1.209623 2.856465 -0.438047 4.533874 -0.989927 -16.493545 0.000000 0.000000 0.000000 -22.446966 -4.622560 -1.162474 -46.390601 -7.985888 -1.619138 -0.445041 -29.820912 0.897851 0.000000 0.000000 0.000000 22.453640 4.072581 1.510321 51.929339 9.482485 -0.800744 -4.474776 33.362677 0.233547 0.000000 0.000000 0.000000 
0.016863 0.947675 -0.051030 -2.006192 3.369491 6.762288 9.046889 -0.428662 -7.430390 -0.641036 0.173879 -3.910511 7.394266 17.263905 18.934082 0.000000 0.000000 0.000000 -5.317041 0.742587 -10.869826 0.847141 0.031655 4.306356 -3.211400 -10.549638 11.644966 0.000000 0.000000 0.000000 1.192169 -0.223668 3.513529 -0.316883 0.194190 -1.517704 -1.352293 3.071156 -0.581945 4.519777 -0.869693 -16.935138 0.000000 0.000000 0.000000 -22.747614 -5.497268 -0.882260 -44.920140 -9.004575 -1.112982 2.065566 -34.276824 0.191871 0.000000 0.000000 0.000000 23.387275 4.703163 2.078449 50.265073 12.111452 0.190833 -9.030842 38.678454 -1.107854 0.000000 0.000000 0.000000 
0.017419 0.948402 -0.053230 -1.682047 3.738690 6.959586 8.604046 -0.463190 -8.081826 -0.539337 0.156128 -3.531307 7.152315 17.003302 19.070149 0.000000 0.000000 0.000000 -5.835293 0.727138 -11.414328 1.082124 0.006310 4.793296 -3.381435 -10.867470 11.909437 0.000000 0.000000 0.000000 0.926160 -0.225660 3.864733 -0.198502 0.123355 -1.033051 -1.378630 3.110377 -1.064175 3.985900 -0.504233 -17.210424 0.000000 0.000000 0.000000 -23.215867 -6.103261 -0.681959 -43.032955 -10.683696 -0.404025 5.849374 -39.223816 -1.187617 0.000000 0.000000 0.000000 23.959696 5.781775 2.817041 48.103672 14.554104 1.067542 -15.683483 44.074614 -3.763467 0.000000 0.000000 0.000000 
0.018028 0.949143 -0.055299 -1.459270 4.484220 6.842873 8.363038 -0.491427 -8.448002 -0.594888 0.149728 -3.195334 6.701044 16.494226 19.037366 0.000000 0.000000 0.000000 -6.130580 0.681940 -11.245120 1.169829 -0.013175 4.766266 -3.680663 -11.388452 12.271114 0.000000 0.000000 0.000000 0.750920 -0.215073 3.885355 -0.074359 0.037159 -0.305962 -1.591005 3.224099 -1.313224 3.789219 -0.288331 -17.616883 0.000000 0.000000 0.000000 -23.505479 -6.973669 -0.404126 -40.508136 -12.719681 0.356846 10.062815 -43.339378 -3.094075 0.000000 0.000000 0.000000 24.751100 6.770540 3.650485 45.376714 16.947000 1.716526 -24.378283 46.750515 -7.511381 0.000000 0.000000 0.000000 
0.018587 0.949604 -0.057146 -1.173990 4.842361 7.207245 8.124802 -0.525031 -8.943158 -0.772983 0.165467 -3.351724 6.472735 16.257144 19.227242 0.000000 0.000000 0.000000 -6.449598 0.666343 -11.517160 1.119331 -0.013664 4.507873 -3.838980 -11.677018 12.582313 0.000000 0.000000 0.000000 0.652622 -0.206319 3.818164 -0.069644 0.012407 0.183690 -1.666536 3.259398 -1.520978 3.430496 -0.033967 -17.871934 0.000000 0.000000 0.000000 -23.518622 -7.443176 -0.217221 -38.257675 -14.467468 0.895472 16.277124 -46.287464 -6.054080 0.000000 0.000000 0.000000 24.529408 7.722872 4.317343 43.320311 18.901023 2.233950 -32.611924 47.181833 -11.014887 0.000000 0.000000 0.000000 
0.018949 0.949773 -0.058807 -0.900252 5.122412 7.191519 7.846743 -0.544904 -9.144477 -0.858570 0.167808 -3.235341 6.290955 16.055585 19.247686 0.000000 0.000000 0.000000 -6.575036 0.643168 -11.320082 0.782843 0.027518 4.162395 -3.954926 -11.874625 12.737964 0.000000 0.000000 0.000000 0.486074 -0.194587 3.807637 0.015737 -0.029827 0.210998 -1.844023 3.430545 -1.347411 2.573808 0.557190 -18.641024 0.000000 0.000000 0.000000 -23.711477 -7.849913 -0.121345 -35.276064 -16.059433 1.265809 23.778688 -47.865207 -9.731332 0.000000 0.000000 0.000000 24.467086 8.329324 4.829536 40.484936 20.359247 2.373996 -39.171950 45.880112 -13.303910 0.000000 0.000000 0.000000 
